<svg width="18" height="19" viewBox="0 0 18 19" fill="none" xmlns="http://www.w3.org/2000/svg">
<path d="M13 0.0776367H5C3.67392 0.0776367 2.40215 0.604285 1.46447 1.54173C0.526784 2.47917 0 3.75061 0 5.07635V13.0743C0 14.4 0.526784 15.6715 1.46447 16.6089C2.40215 17.5464 3.67392 18.073 5 18.073H13C14.3261 18.073 15.5979 17.5464 16.5355 16.6089C17.4732 15.6715 18 14.4 18 13.0743V5.07635C18 3.75061 17.4732 2.47917 16.5355 1.54173C15.5979 0.604285 14.3261 0.0776367 13 0.0776367ZM16.25 13.0743C16.2474 13.9352 15.9041 14.7601 15.2952 15.3689C14.6863 15.9776 13.8611 16.3208 13 16.3234H5C4.13886 16.3208 3.31374 15.9776 2.70482 15.3689C2.09589 14.7601 1.75264 13.9352 1.75 13.0743V5.07635C1.75264 4.21543 2.09589 3.39052 2.70482 2.78176C3.31374 2.17299 4.13886 1.82982 5 1.82719H13C13.8611 1.82982 14.6863 2.17299 15.2952 2.78176C15.9041 3.39052 16.2474 4.21543 16.25 5.07635V13.0743ZM14.75 4.32654C14.75 4.52427 14.6914 4.71756 14.5815 4.88197C14.4716 5.04638 14.3154 5.17451 14.1327 5.25018C13.95 5.32585 13.7489 5.34565 13.5549 5.30707C13.3609 5.2685 13.1827 5.17328 13.0429 5.03347C12.903 4.89365 12.8078 4.71551 12.7692 4.52158C12.7306 4.32765 12.7504 4.12664 12.8261 3.94396C12.9018 3.76128 13.03 3.60514 13.1944 3.49529C13.3589 3.38543 13.5522 3.3268 13.75 3.3268C14.0152 3.3268 14.2696 3.43213 14.4571 3.61962C14.6446 3.80711 14.75 4.06139 14.75 4.32654ZM9 4.57648C8.10998 4.57648 7.23996 4.84033 6.49993 5.33467C5.75991 5.82901 5.18314 6.53163 4.84254 7.35369C4.50195 8.17574 4.41283 9.08031 4.58647 9.953C4.7601 10.8257 5.18868 11.6273 5.81802 12.2565C6.44736 12.8857 7.24918 13.3141 8.12209 13.4877C8.99501 13.6613 9.89981 13.5722 10.7221 13.2317C11.5443 12.8912 12.2471 12.3146 12.7416 11.5747C13.2361 10.8349 13.5 9.9651 13.5 9.07532C13.5013 8.48415 13.3858 7.89855 13.1601 7.35213C12.9345 6.80571 12.603 6.30924 12.1849 5.89122C11.7668 5.4732 11.2702 5.14187 10.7236 4.91625C10.1771 4.69062 9.59132 4.57516 9 4.57648ZM9 11.8246C8.4561 11.8246 7.92442 11.6634 7.47218 11.3613C7.01995 11.0592 6.66747 10.6298 6.45933 10.1274C6.25119 9.62506 6.19673 9.07227 6.30284 8.53896C6.40895 8.00565 6.67086 7.51577 7.05546 7.13127C7.44005 6.74678 7.93005 6.48493 8.4635 6.37885C8.99695 6.27277 9.54988 6.32722 10.0524 6.5353C10.5549 6.74339 10.9844 7.09577 11.2865 7.54789C11.5887 8.00001 11.75 8.53156 11.75 9.07532C11.75 9.80447 11.4603 10.5038 10.9445 11.0194C10.4288 11.535 9.72935 11.8246 9 11.8246Z" fill="#949494"/>
</svg>
