<svg width="10" height="19" viewBox="0 0 10 19" fill="none" xmlns="http://www.w3.org/2000/svg">
<path d="M9.5 3.07686H6.5C6.23478 3.07686 5.98043 3.18219 5.79289 3.36968C5.60536 3.55717 5.5 3.81146 5.5 4.07661V7.07583H9.5C9.55605 7.07459 9.61157 7.08682 9.66191 7.11151C9.71224 7.13619 9.7559 7.1726 9.78922 7.21767C9.82255 7.26274 9.84455 7.31516 9.85339 7.37051C9.86223 7.42585 9.85763 7.48251 9.84 7.53571L9.1 9.73515C9.06673 9.83363 9.00359 9.91929 8.91935 9.98021C8.83511 10.0411 8.73397 10.0743 8.63 10.0751H5.5V17.5731C5.5 17.7057 5.44732 17.8328 5.35355 17.9266C5.25979 18.0203 5.13261 18.073 5 18.073H2.5C2.36739 18.073 2.24021 18.0203 2.14645 17.9266C2.05268 17.8328 2 17.7057 2 17.5731V10.0751H0.5C0.367392 10.0751 0.240215 10.0224 0.146447 9.92865C0.0526785 9.83491 0 9.70776 0 9.57519V7.5757C0 7.44313 0.0526785 7.31599 0.146447 7.22224C0.240215 7.1285 0.367392 7.07583 0.5 7.07583H2V4.07661C2 3.01601 2.42143 1.99886 3.17157 1.24891C3.92172 0.498955 4.93913 0.0776367 6 0.0776367H9.5C9.63261 0.0776367 9.75979 0.130302 9.85355 0.224046C9.94732 0.31779 10 0.444934 10 0.577508V2.57699C10 2.70957 9.94732 2.83671 9.85355 2.93045C9.75979 3.0242 9.63261 3.07686 9.5 3.07686Z" fill="#949494"/>
</svg>
