<svg width="18" height="18" viewBox="0 0 18 18" fill="none" xmlns="http://www.w3.org/2000/svg">
<path fill-rule="evenodd" clip-rule="evenodd" d="M17.9737 2.60858C17.5092 3.33742 16.9478 3.9732 16.3112 4.49136C16.3112 4.68176 16.3112 4.87215 16.3112 5.07312C16.3137 6.78478 16.0269 8.47992 15.4675 10.0599C14.908 11.6398 14.0872 13.0729 13.0526 14.2759C12.0181 15.4788 10.7906 16.4274 9.44156 17.0666C8.09254 17.7057 6.64897 18.0226 5.1949 17.9987C3.49684 18.0054 1.82053 17.5493 0.297269 16.666C0.257082 16.6453 0.222906 16.6113 0.198954 16.5681C0.175001 16.5249 0.16232 16.4743 0.162472 16.4227V16.3064C0.162472 16.2334 0.187089 16.1635 0.230906 16.1119C0.274724 16.0603 0.334153 16.0313 0.396121 16.0313C2.06527 15.9666 3.67488 15.2858 4.9972 14.0851C4.2569 14.0676 3.53589 13.804 2.91737 13.3249C2.29884 12.8458 1.80799 12.1706 1.50146 11.3773C1.48592 11.3338 1.48015 11.2863 1.48469 11.2395C1.48924 11.1926 1.50395 11.1479 1.52742 11.1096C1.55089 11.0714 1.58232 11.0409 1.61869 11.0211C1.65506 11.0013 1.69515 10.9928 1.73511 10.9965C2.19428 11.0508 2.65803 11.0005 3.10105 10.8484C2.2882 10.6499 1.54993 10.1526 0.99271 9.42831C0.43549 8.70401 0.0881258 7.7901 0.000715662 6.8184C-0.00241874 6.77137 0.00477786 6.72418 0.0216136 6.68137C0.0384494 6.63856 0.064358 6.60156 0.0968495 6.57394C0.129341 6.54632 0.167322 6.529 0.207143 6.52365C0.246963 6.5183 0.287284 6.5251 0.324229 6.54338C0.771797 6.77573 1.25495 6.8981 1.74409 6.90302C1.03346 6.35428 0.49726 5.54395 0.219247 4.59862C-0.0587653 3.65328 -0.0629297 2.62618 0.207405 1.67776C0.235614 1.5846 0.283892 1.50166 0.347513 1.43705C0.411134 1.37244 0.487918 1.32838 0.570349 1.30919C0.652779 1.29 0.73803 1.29633 0.817758 1.32756C0.897485 1.3588 0.968956 1.41386 1.02517 1.48737C2.99724 3.95665 5.70689 5.42808 8.5828 5.59142C8.50914 5.24559 8.47291 4.89019 8.47497 4.53367C8.48812 3.61962 8.73177 2.73079 9.17498 1.98007C9.6182 1.22934 10.241 0.650603 10.9642 0.317347C11.6874 -0.0159097 12.4785 -0.0886445 13.2369 0.10838C13.9954 0.305404 14.6869 0.763298 15.2238 1.42391C15.9723 1.25616 16.6959 0.960379 17.3716 0.545979C17.3958 0.528159 17.4239 0.518712 17.4525 0.518712C17.4811 0.518712 17.5091 0.528159 17.5333 0.545979C17.5485 0.574534 17.5565 0.607517 17.5565 0.641176C17.5565 0.674834 17.5485 0.707817 17.5333 0.736372C17.2061 1.61811 16.6531 2.35765 15.9517 2.85186C16.5659 2.76806 17.1694 2.5976 17.749 2.34414C17.7729 2.32504 17.801 2.31483 17.8299 2.31483C17.8587 2.31483 17.8869 2.32504 17.9108 2.34414C17.931 2.35502 17.9489 2.37094 17.9633 2.39081C17.9778 2.41068 17.9884 2.43401 17.9943 2.45918C18.0003 2.48436 18.0016 2.51076 17.998 2.53657C17.9944 2.56237 17.9861 2.58694 17.9737 2.60858Z" fill="#949494"/>
</svg>
