<svg width="24" height="24" viewBox="0 0 24 24" fill="none" xmlns="http://www.w3.org/2000/svg">
<path d="M12.15 16.5V18.6" stroke="#FF7B29" stroke-width="1.5" stroke-linecap="round" stroke-linejoin="round"/>
<path d="M7.14999 22H17.15V21C17.15 19.9 16.25 19 15.15 19H9.14999C8.04999 19 7.14999 19.9 7.14999 21V22V22Z" stroke="#FF7B29" stroke-width="1.5" stroke-miterlimit="10"/>
<path d="M6.14999 22H18.15" stroke="#FF7B29" stroke-width="1.5" stroke-linecap="round" stroke-linejoin="round"/>
<path d="M12 16C8.13 16 5 12.87 5 9V6C5 3.79 6.79 2 9 2H15C17.21 2 19 3.79 19 6V9C19 12.87 15.87 16 12 16Z" stroke="#FF7B29" stroke-width="1.5" stroke-linecap="round" stroke-linejoin="round"/>
<path d="M5.46999 11.65C4.71999 11.41 4.05999 10.97 3.53999 10.45C2.63999 9.45 2.03999 8.25 2.03999 6.85C2.03999 5.45 3.13999 4.35 4.53999 4.35H5.18999C4.98999 4.81 4.88999 5.32 4.88999 5.85V8.85C4.88999 9.85 5.09999 10.79 5.46999 11.65Z" stroke="#FF7B29" stroke-width="1.5" stroke-linecap="round" stroke-linejoin="round"/>
<path d="M18.53 11.65C19.28 11.41 19.94 10.97 20.46 10.45C21.36 9.45 21.96 8.25 21.96 6.85C21.96 5.45 20.86 4.35 19.46 4.35H18.81C19.01 4.81 19.11 5.32 19.11 5.85V8.85C19.11 9.85 18.9 10.79 18.53 11.65Z" stroke="#FF7B29" stroke-width="1.5" stroke-linecap="round" stroke-linejoin="round"/>
</svg>
